<svg width="65" height="130" viewBox="0 0 65 130" fill="none" xmlns="http://www.w3.org/2000/svg">
<path d="M48.5258 15.488L63.5003 3.96912L61.0045 16.4479L48.5258 15.488Z" fill="#2FB295" stroke="#2FB295" stroke-width="1.18167"/>
<path d="M36.8611 13.2901L52.2228 1.47339L48.6778 16.8351L36.8611 13.2901Z" fill="#2FB295" stroke="#2FB295" stroke-width="1.18167"/>
<path fill-rule="evenodd" clip-rule="evenodd" d="M58.0537 10.4241C60.7298 10.4241 62.0682 11.505 62.0684 13.6663C62.0684 13.7692 61.6565 16.0342 60.833 20.4602C60.2072 23.7457 59.8192 27.1204 59.6689 30.5842C59.5304 30.4986 59.3835 30.4223 59.2266 30.3606C57.8094 29.8034 56.2086 30.5001 55.6514 31.9172C55.0942 33.3344 56.4403 33.2858 57.8574 33.843C58.5456 34.1136 59.1247 34.4751 59.6016 34.6155C59.6437 38.7462 60.0542 41.5418 60.833 43.0022C61.6565 44.4432 62.0684 45.833 62.0684 47.1711C62.0684 49.7444 60.884 51.7516 58.5166 53.1926C56.1492 54.6336 53.5759 55.3547 50.7969 55.3547C43.5918 55.3546 39.9893 51.6486 39.9893 44.2375C39.9893 42.5907 40.2985 40.3779 40.916 37.5989C41.5336 34.8198 41.8418 33.0181 41.8418 32.1946C41.8418 30.033 40.6584 28.9524 38.291 28.9524C34.9972 28.9524 31.703 31.9374 28.4092 37.9075C24.6008 44.8039 22.6963 54.8912 22.6963 68.1692C22.6963 73.9334 23.3146 79.0806 24.5498 83.6096C26.9173 92.1526 30.8289 96.4241 36.2842 96.4241C41.0188 96.4239 44.6729 93.8508 47.2461 88.7043C48.3783 86.234 50.2827 84.9983 52.959 84.9983C55.635 84.9984 57.8479 86.4912 59.5977 89.4758C61.3474 92.4607 62.2226 95.446 62.2227 98.4309C62.2227 107.386 59.4431 114.643 53.8848 120.201C48.3265 125.76 41.0701 128.539 32.1152 128.539C22.5425 128.539 15.3368 125.296 10.499 118.812C5.76423 112.121 2.83048 105.327 1.69824 98.4309C0.566077 91.1232 3.67608e-05 85.2049 0 80.676C0 76.147 0.154094 71.6171 0.462891 67.0881C0.874622 62.5592 1.54434 57.5668 2.4707 52.1116C3.39709 46.5534 4.73457 41.5096 6.48438 36.9807C8.33711 32.3489 10.5508 28.0776 13.124 24.1663C15.6973 20.1519 18.9915 17.0118 23.0059 14.7473C27.123 12.483 31.1375 11.3508 35.0488 11.3508C39.0626 11.3508 41.9445 11.6078 43.6943 12.1223C45.547 12.637 46.8341 12.8948 47.5547 12.8948C48.3781 12.8948 49.6652 12.4829 51.415 11.6594C53.2677 10.8361 55.4806 10.4241 58.0537 10.4241ZM54.9502 42.2698C54.6115 42.2354 54.2787 42.2271 53.9932 42.2688C53.7407 42.3058 53.3612 42.4051 53.1406 42.7356C52.9623 43.0031 52.9386 43.3238 52.9482 43.5696C52.9586 43.8337 53.0127 44.1245 53.0869 44.4143C53.2363 44.9968 53.4904 45.6665 53.7529 46.2854C54.0173 46.9084 54.2993 47.5014 54.5146 47.9368C54.6223 48.1545 54.7145 48.3338 54.7793 48.4592C54.8116 48.5218 54.8377 48.5719 54.8555 48.6057C54.8642 48.6223 54.8713 48.6359 54.876 48.6448C54.8781 48.6487 54.8797 48.6523 54.8809 48.6545C54.8814 48.6556 54.8824 48.6568 54.8828 48.6575V48.6584L55.1719 49.1995L55.7012 48.8909H55.7021C55.7028 48.8904 55.7041 48.8895 55.7051 48.8889C55.7075 48.8875 55.7115 48.8856 55.7158 48.8831C55.7252 48.8776 55.7392 48.869 55.7568 48.8586C55.7925 48.8377 55.8453 48.8068 55.9111 48.7678C56.0431 48.6895 56.2311 48.5767 56.4561 48.4397C56.9064 48.1654 57.5092 47.7904 58.1113 47.3899C58.71 46.9916 59.3232 46.5584 59.7891 46.1692C60.02 45.9762 60.2331 45.7789 60.3916 45.5911C60.4707 45.4973 60.5496 45.3899 60.6094 45.2747C60.6516 45.1931 60.6993 45.0792 60.7158 44.9446L60.7207 44.803L60.7119 44.7209C60.6812 44.5363 60.588 44.3949 60.5166 44.3069C60.429 44.199 60.3219 44.1054 60.2178 44.0276C60.0082 43.871 59.7343 43.7185 59.4365 43.5754C58.8355 43.2866 58.0487 42.9958 57.2549 42.761C56.4626 42.5266 55.6337 42.3391 54.9502 42.2698ZM50.4531 27.4797C48.9375 27.3328 47.5895 28.4427 47.4424 29.9583C47.2956 31.4734 48.5383 31.4489 50.0537 31.5959C51.5694 31.743 52.7845 32.0061 52.9316 30.4905C53.0787 28.9748 51.9688 27.6268 50.4531 27.4797Z" fill="#2FB295"/>
</svg>
